#Comment line ignore any data following # character 
#Hierarchical Translation and Rotation (.htr) file 
[Header]	
#Header keywords are followed by a single value 
FileType HTR		#Single word string
DataType HTRS		#Translation followed by rotation and scale data
FileVersion 1		#integer
NumSegments 25		#integer
NumFrames 4		#integer
DataFrameRate 30		#integer, data frame rate in this file
EulerRotationOrder ZYX
CalibrationUnits mm
RotationUnits Degrees
GlobalAxisofGravity Y
BoneLengthAxis Y
ScaleFactor 1.00
[SegmentNames&Hierarchy]
#CHILD	PARENT
BN_Tick_Root GLOBAL
BN_Torso BN_Tick_Root
BN_L_Leg_Front01 BN_Torso
BN_L_Leg_Rear01 BN_Torso
BN_MetalTop BN_Torso
BN_Neck BN_Torso
BN_R_Leg_Front01 BN_Torso
BN_R_Leg_Rear01 BN_Torso
BN_Sack BN_Torso
BN_L_Leg_Front02 BN_L_Leg_Front01
BN_L_Leg_Front03 BN_L_Leg_Front02
BN_L_Leg_Rear02 BN_L_Leg_Rear01
BN_L_Leg_Rear03 BN_L_Leg_Rear02
BN_Head BN_Neck
BN_Needle BN_Head
BN_R_Leg_Front02 BN_R_Leg_Front01
BN_R_Leg_Front03 BN_R_Leg_Front02
BN_R_Leg_Rear02 BN_R_Leg_Rear01
BN_R_Leg_Rear03 BN_R_Leg_Rear02
BN_SackDef01 BN_Sack
BN_SackDef02 BN_Sack
BN_SackDef03 BN_Sack
BN_SackDef04 BN_Sack
BN_SackDef05 BN_Sack
BN_SackDef06 BN_Sack
[BasePosition]
#SegmentName Tx, Ty, Tz, Rx, Ry, Rz, BoneLength
BN_Tick_Root 0.000000 0.000000 0.000000 -90.000000 0.000000 0.000000 10.000000 
BN_Torso 0.000000 0.000000 0.000000 0.000000 0.000000 0.000000 10.000000 
BN_L_Leg_Front01 0.000000 0.000000 0.000000 0.000000 0.000000 0.000000 10.000000 
BN_L_Leg_Rear01 0.000000 0.000000 0.000000 0.000000 0.000000 0.000000 10.000000 
BN_MetalTop 0.000000 0.000000 0.000000 0.000000 0.000000 0.000000 10.000000 
BN_Neck 0.000000 0.000000 0.000000 0.000000 0.000000 0.000000 10.000000 
BN_R_Leg_Front01 0.000000 0.000000 0.000000 0.000000 0.000000 0.000000 10.000000 
BN_R_Leg_Rear01 0.000000 0.000000 0.000000 0.000000 0.000000 0.000000 10.000000 
BN_Sack 0.000000 0.000000 0.000000 0.000000 0.000000 0.000000 10.000000 
BN_L_Leg_Front02 0.000000 0.000000 0.000000 0.000000 0.000000 0.000000 10.000000 
BN_L_Leg_Front03 0.000000 0.000000 0.000000 0.000000 0.000000 0.000000 10.000000 
BN_L_Leg_Rear02 0.000000 0.000000 0.000000 0.000000 0.000000 0.000000 10.000000 
BN_L_Leg_Rear03 0.000000 0.000000 0.000000 0.000000 0.000000 0.000000 10.000000 
BN_Head 0.000000 0.000000 0.000000 0.000000 0.000000 0.000000 10.000000 
BN_Needle 0.000000 0.000000 0.000000 0.000000 0.000000 0.000000 10.000000 
BN_R_Leg_Front02 0.000000 0.000000 0.000000 0.000000 0.000000 0.000000 10.000000 
BN_R_Leg_Front03 0.000000 0.000000 0.000000 0.000000 0.000000 0.000000 10.000000 
BN_R_Leg_Rear02 0.000000 0.000000 0.000000 0.000000 0.000000 0.000000 10.000000 
BN_R_Leg_Rear03 0.000000 0.000000 0.000000 0.000000 0.000000 0.000000 10.000000 
BN_SackDef01 0.000000 0.000000 0.000000 0.000000 0.000000 0.000000 10.000000 
BN_SackDef02 0.000000 0.000000 0.000000 0.000000 0.000000 0.000000 10.000000 
BN_SackDef03 0.000000 0.000000 0.000000 0.000000 0.000000 0.000000 10.000000 
BN_SackDef04 0.000000 0.000000 0.000000 0.000000 0.000000 0.000000 10.000000 
BN_SackDef05 0.000000 0.000000 0.000000 0.000000 0.000000 0.000000 10.000000 
BN_SackDef06 0.000000 0.000000 0.000000 0.000000 0.000000 0.000000 10.000000 
#Beginning of Data. Separated by tabs
#Fr	Tx	Ty	Tz	Rx	Ry	Rz	SF
[BN_Tick_Root]
376 0.000000 0.000000 0.000000 0.000000 0.000000 -0.000020 0.000000
377 0.000000 0.000000 0.000000 0.000000 0.000000 -0.000020 0.000000
378 0.000000 0.000000 0.000000 0.000000 0.000000 -0.000020 0.000000
379 0.000000 0.000000 0.000000 0.000000 0.000000 -0.000020 0.000000
[BN_Torso]
376 -44.964489 -339.710876 662.883850 25.759066 0.131497 -156.231934 746.217346
377 -39.773502 -362.078888 649.593323 31.441172 0.135659 -156.188644 744.751282
378 -31.212330 -395.156464 634.402954 37.138206 0.135509 -156.145172 748.057434
379 -25.351343 -419.749756 623.267273 27.824553 0.130325 -156.108643 751.860840
[BN_L_Leg_Front01]
376 -68.477791 10.734189 -26.804373 45.460194 68.169739 -136.397583 74.316254
377 -68.477791 10.734189 -26.804373 53.757259 61.882450 -124.465897 74.316254
378 -68.477791 10.734189 -26.804373 55.179462 53.432606 -115.136444 74.316254
379 -68.477791 10.734189 -26.804373 42.667564 59.783363 -119.510880 74.316254
[BN_L_Leg_Rear01]
376 -72.133743 -73.994843 -18.268616 99.708252 52.083412 -125.551598 104.939293
377 -72.133743 -73.994843 -18.268616 99.113968 42.216473 -122.476944 104.939293
378 -72.133743 -73.994843 -18.268616 97.184601 30.288002 -120.396797 104.939293
379 -72.133743 -73.994843 -18.268616 89.906189 36.068092 -123.344559 104.939293
[BN_MetalTop]
376 0.000008 13.737477 26.403606 76.622040 -32.931633 -94.247658 29.763546
377 0.000008 13.737477 26.403606 76.706261 -32.103672 -94.349686 29.763546
378 0.000008 13.737477 26.403606 76.862808 -31.071924 -94.649452 29.763546
379 0.000008 13.737477 26.403606 77.011559 -30.039152 -94.943054 29.763546
[BN_Neck]
376 0.000014 95.233284 10.002091 -89.999672 -65.297531 89.999657 95.757088
377 0.000014 95.233284 10.002091 -89.999672 -65.297531 89.999657 95.757088
378 0.000014 95.233284 10.002091 -89.999672 -65.297531 89.999657 95.757088
379 0.000014 95.233284 10.002091 -89.999672 -65.297531 89.999657 95.757088
[BN_R_Leg_Front01]
376 68.477768 10.734107 -26.804314 -43.029030 65.381790 -48.303524 74.316193
377 68.477768 10.734107 -26.804314 -50.161377 59.009460 -59.118080 74.316193
378 68.477768 10.734107 -26.804314 -51.312881 50.674774 -68.571846 74.316193
379 68.477768 10.734107 -26.804314 -41.187336 57.537289 -66.826485 74.316193
[BN_R_Leg_Rear01]
376 72.133751 -73.994873 -18.268644 -74.272659 45.496975 -74.987091 104.939331
377 72.133751 -73.994873 -18.268644 -74.594872 34.354565 -76.846748 104.939331
378 72.133751 -73.994873 -18.268644 -74.461830 21.587677 -78.380325 104.939331
379 72.133751 -73.994873 -18.268644 -71.797218 28.707890 -78.056656 104.939331
[BN_Sack]
376 -0.000000 -78.024918 33.657791 93.873634 0.479734 -100.084518 84.974907
377 -0.000000 -78.024918 33.657791 93.549019 3.339271 -101.195663 84.974907
378 -0.000000 -78.024918 33.657791 93.677673 2.005179 -99.828201 84.974907
379 -0.000000 -78.024918 33.657791 93.739731 -0.520319 -97.296890 84.974907
[BN_L_Leg_Front02]
376 142.805023 -0.000015 -0.000104 0.197795 0.196875 -82.968102 142.805023
377 142.805023 -0.000015 -0.000104 0.189985 0.282408 -90.955467 142.805023
378 142.805023 -0.000015 -0.000104 0.160970 0.378063 -100.800163 142.805023
379 142.805023 -0.000015 -0.000104 0.133056 0.467251 -109.382172 142.805023
[BN_L_Leg_Front03]
376 124.143021 -0.000045 0.000007 0.351765 -0.449468 88.298584 124.143021
377 124.143021 -0.000045 0.000007 0.352586 -0.442702 98.241806 124.143021
378 124.143021 -0.000045 0.000007 0.355545 -0.423008 109.469940 124.143021
379 124.143021 -0.000045 0.000007 0.353556 -0.395660 118.268509 124.143021
[BN_L_Leg_Rear02]
376 139.939041 0.000075 -0.000022 0.105865 -0.226331 88.937080 139.939041
377 139.939041 0.000075 -0.000022 0.091690 -0.217519 90.842300 139.939041
378 139.939041 0.000075 -0.000022 0.100637 -0.223635 89.803635 139.939041
379 139.939041 0.000075 -0.000022 0.112414 -0.228329 87.421188 139.939041
[BN_L_Leg_Rear03]
376 142.839615 0.000179 -0.000060 0.000337 -0.002323 -106.500191 142.839615
377 142.839615 0.000179 -0.000060 0.000384 -0.002316 -108.809547 142.839615
378 142.839615 0.000179 -0.000060 0.000358 -0.002320 -107.556915 142.839615
379 142.839615 0.000179 -0.000060 0.000299 -0.002328 -104.625565 142.839615
[BN_Head]
376 57.062447 -0.000030 0.000000 17.343800 23.777826 54.015003 57.062447
377 57.062447 -0.000030 0.000000 12.593259 20.665468 64.245323 57.062447
378 57.062447 -0.000030 0.000000 11.436439 16.167545 79.284973 57.062447
379 57.062447 -0.000030 0.000000 13.008639 15.961608 76.267815 57.062447
[BN_Needle]
376 34.234138 78.361702 -0.000000 0.000003 0.000030 87.896805 85.513351
377 35.398380 110.058502 -0.000114 0.000003 0.000030 87.896805 115.611069
378 37.701855 172.794998 -0.000153 0.000003 0.000030 87.896805 176.860229
379 40.574490 251.008865 -0.000076 0.000003 0.000030 87.896805 254.267075
[BN_R_Leg_Front02]
376 142.804947 -0.000060 0.000060 -0.198668 0.226963 85.688354 142.804947
377 142.804947 -0.000060 0.000060 -0.183595 0.306802 93.733803 142.804947
378 142.804947 -0.000060 0.000060 -0.152788 0.405879 103.811623 142.804947
379 142.804947 -0.000060 0.000060 -0.119878 0.505870 112.908798 142.804947
[BN_R_Leg_Front03]
376 124.143005 -0.000060 -0.000156 -0.353393 -0.445000 -91.762283 124.143005
377 124.143005 -0.000060 -0.000156 -0.356301 -0.439112 -101.535042 124.143005
378 124.143005 -0.000060 -0.000156 -0.351823 -0.415426 -112.671204 124.143005
379 124.143005 -0.000060 -0.000156 -0.353320 -0.382406 -121.608284 124.143005
[BN_R_Leg_Rear02]
376 139.939011 -0.000149 0.000015 -0.095146 -0.227327 -91.400688 139.939011
377 139.939011 -0.000149 0.000015 -0.094619 -0.227564 -91.665718 139.939011
378 139.939011 -0.000149 0.000015 -0.101030 -0.213045 -88.331482 139.939011
379 139.939011 -0.000149 0.000015 -0.109734 -0.206774 -85.435829 139.939011
[BN_R_Leg_Rear03]
376 142.839417 0.000075 0.000119 0.002313 -0.000397 109.484825 142.839417
377 142.839417 0.000075 0.000119 0.002312 -0.000403 109.796738 142.839417
378 142.839417 0.000075 0.000119 0.002325 -0.000322 105.756271 142.839417
379 142.839417 0.000075 0.000119 0.002334 -0.000248 102.113480 142.839417
[BN_SackDef01]
376 249.782272 -3.760844 42.949425 -128.408218 -44.374973 -11.740845 253.475800
377 249.782272 -3.760844 42.949425 -128.408218 -44.374973 -11.740845 253.475800
378 249.782272 -3.760844 42.949425 -128.408218 -44.374973 -11.740845 253.475800
379 249.782272 -3.760844 42.949425 -128.408218 -44.374973 -11.740845 253.475800
[BN_SackDef02]
376 138.789795 -62.131748 45.674385 32.077126 -27.375721 -88.781525 158.773758
377 138.789795 -62.131748 45.674385 32.077126 -27.375721 -88.781525 158.773758
378 138.789795 -62.131748 45.674385 32.077126 -27.375721 -88.781525 158.773758
379 138.789795 -62.131748 45.674385 32.077126 -27.375721 -88.781525 158.773758
[BN_SackDef03]
376 249.782272 -3.760785 -42.949661 18.144459 44.375008 -11.740894 253.475845
377 249.782272 -3.760785 -42.949661 18.144459 44.375008 -11.740894 253.475845
378 249.782272 -3.760785 -42.949661 18.144459 44.375008 -11.740894 253.475845
379 249.782272 -3.760785 -42.949661 18.144459 44.375008 -11.740894 253.475845
[BN_SackDef04]
376 138.789780 -62.131645 -45.674473 146.059982 27.375723 -88.781555 158.773743
377 138.789780 -62.131645 -45.674473 146.059982 27.375723 -88.781555 158.773743
378 138.789780 -62.131645 -45.674473 146.059982 27.375723 -88.781555 158.773743
379 138.789780 -62.131645 -45.674473 146.059982 27.375723 -88.781555 158.773743
[BN_SackDef05]
376 118.790161 46.167137 -63.831196 0.155741 51.314110 90.605110 142.537460
377 118.790161 46.167137 -63.831196 0.155741 51.314110 90.605110 142.537460
378 118.790161 46.167137 -63.831196 0.155741 51.314110 90.605110 142.537460
379 118.790161 46.167137 -63.831196 0.155741 51.314110 90.605110 142.537460
[BN_SackDef06]
376 118.790207 46.167194 63.831219 152.058487 -51.314072 90.605019 142.537537
377 118.790207 46.167194 63.831219 152.058487 -51.314072 90.605019 142.537537
378 118.790207 46.167194 63.831219 152.058487 -51.314072 90.605019 142.537537
379 118.790207 46.167194 63.831219 152.058487 -51.314072 90.605019 142.537537
